<svg width="256" height="256" viewBox="0 0 256 256" fill="none" xmlns="http://www.w3.org/2000/svg">
  <defs>
    <radialGradient id="bgGlow" cx="0" cy="0" r="1" gradientUnits="userSpaceOnUse" gradientTransform="translate(128 90) rotate(90) scale(150)">
      <stop offset="0" stop-color="#2AE8FF"/>
      <stop offset="0.55" stop-color="#5B6CFF"/>
      <stop offset="1" stop-color="#FF5AD8"/>
    </radialGradient>
    <linearGradient id="neck" x1="128" y1="126" x2="128" y2="220" gradientUnits="userSpaceOnUse">
      <stop stop-color="#0E1A2E"/>
      <stop offset="1" stop-color="#121018"/>
    </linearGradient>
    <linearGradient id="hair" x1="128" y1="50" x2="128" y2="130" gradientUnits="userSpaceOnUse">
      <stop stop-color="#0D2B57"/>
      <stop offset="1" stop-color="#13203C"/>
    </linearGradient>
    <linearGradient id="face" x1="128" y1="72" x2="128" y2="152" gradientUnits="userSpaceOnUse">
      <stop stop-color="#F8D5B4"/>
      <stop offset="1" stop-color="#D9AE8B"/>
    </linearGradient>
    <linearGradient id="coat" x1="128" y1="140" x2="128" y2="250" gradientUnits="userSpaceOnUse">
      <stop stop-color="#1A2B4E"/>
      <stop offset="1" stop-color="#0C111D"/>
    </linearGradient>
  </defs>

  <rect x="8" y="8" width="240" height="240" rx="120" fill="#0B0D16"/>
  <circle cx="128" cy="128" r="120" fill="url(#bgGlow)" fill-opacity="0.24"/>

  <ellipse cx="128" cy="216" rx="70" ry="34" fill="url(#coat)"/>
  <path d="M85 224C90 186 107 168 128 168C149 168 166 186 171 224H85Z" fill="url(#neck)"/>

  <ellipse cx="128" cy="120" rx="40" ry="46" fill="url(#face)"/>
  <path d="M86 109C92 72 108 54 128 54C148 54 164 72 170 109C162 95 147 86 128 86C109 86 94 95 86 109Z" fill="url(#hair)"/>
  <rect x="102" y="111" width="20" height="11" rx="5.5" fill="#1B2238" fill-opacity="0.86"/>
  <rect x="134" y="111" width="20" height="11" rx="5.5" fill="#1B2238" fill-opacity="0.86"/>
  <rect x="122" y="114.5" width="12" height="4" rx="2" fill="#2C3557"/>
  <path d="M112 137C117 143 139 143 144 137" stroke="#A06D4F" stroke-width="3" stroke-linecap="round"/>
  <circle cx="72" cy="84" r="18" fill="#00E2FF" fill-opacity="0.26"/>
  <circle cx="192" cy="178" r="24" fill="#A55DFF" fill-opacity="0.22"/>
</svg>
