<svg width="120" height="120" viewBox="0 0 120 120" fill="none" xmlns="http://www.w3.org/2000/svg">
  <rect width="120" height="120" fill="#FFFFFF"/>
  <g fill="#0D111A">
    <rect x="6" y="6" width="30" height="30"/>
    <rect x="11" y="11" width="20" height="20" fill="#FFFFFF"/>
    <rect x="15" y="15" width="12" height="12"/>

    <rect x="84" y="6" width="30" height="30"/>
    <rect x="89" y="11" width="20" height="20" fill="#FFFFFF"/>
    <rect x="93" y="15" width="12" height="12"/>

    <rect x="6" y="84" width="30" height="30"/>
    <rect x="11" y="89" width="20" height="20" fill="#FFFFFF"/>
    <rect x="15" y="93" width="12" height="12"/>

    <rect x="45" y="8" width="4" height="4"/>
    <rect x="53" y="8" width="4" height="4"/>
    <rect x="57" y="12" width="4" height="4"/>
    <rect x="65" y="8" width="4" height="4"/>
    <rect x="69" y="12" width="4" height="4"/>
    <rect x="45" y="16" width="4" height="4"/>
    <rect x="49" y="20" width="4" height="4"/>
    <rect x="57" y="20" width="4" height="4"/>
    <rect x="65" y="20" width="4" height="4"/>
    <rect x="73" y="16" width="4" height="4"/>

    <rect x="41" y="36" width="4" height="4"/>
    <rect x="49" y="36" width="4" height="4"/>
    <rect x="57" y="36" width="4" height="4"/>
    <rect x="61" y="40" width="4" height="4"/>
    <rect x="69" y="36" width="4" height="4"/>
    <rect x="77" y="36" width="4" height="4"/>
    <rect x="85" y="40" width="4" height="4"/>
    <rect x="93" y="40" width="4" height="4"/>

    <rect x="8" y="45" width="4" height="4"/>
    <rect x="16" y="45" width="4" height="4"/>
    <rect x="24" y="45" width="4" height="4"/>
    <rect x="36" y="45" width="4" height="4"/>
    <rect x="44" y="45" width="4" height="4"/>
    <rect x="52" y="45" width="4" height="4"/>
    <rect x="60" y="45" width="4" height="4"/>
    <rect x="72" y="45" width="4" height="4"/>
    <rect x="80" y="45" width="4" height="4"/>
    <rect x="92" y="45" width="4" height="4"/>
    <rect x="100" y="45" width="4" height="4"/>

    <rect x="8" y="53" width="4" height="4"/>
    <rect x="20" y="53" width="4" height="4"/>
    <rect x="28" y="53" width="4" height="4"/>
    <rect x="40" y="53" width="4" height="4"/>
    <rect x="48" y="53" width="4" height="4"/>
    <rect x="56" y="53" width="4" height="4"/>
    <rect x="64" y="53" width="4" height="4"/>
    <rect x="76" y="53" width="4" height="4"/>
    <rect x="84" y="53" width="4" height="4"/>
    <rect x="96" y="53" width="4" height="4"/>
    <rect x="104" y="53" width="4" height="4"/>

    <rect x="8" y="61" width="4" height="4"/>
    <rect x="12" y="65" width="4" height="4"/>
    <rect x="20" y="61" width="4" height="4"/>
    <rect x="28" y="61" width="4" height="4"/>
    <rect x="36" y="61" width="4" height="4"/>
    <rect x="44" y="61" width="4" height="4"/>
    <rect x="52" y="61" width="4" height="4"/>
    <rect x="60" y="61" width="4" height="4"/>
    <rect x="68" y="61" width="4" height="4"/>
    <rect x="76" y="61" width="4" height="4"/>
    <rect x="84" y="61" width="4" height="4"/>
    <rect x="92" y="61" width="4" height="4"/>
    <rect x="100" y="61" width="4" height="4"/>

    <rect x="40" y="69" width="4" height="4"/>
    <rect x="48" y="69" width="4" height="4"/>
    <rect x="56" y="69" width="4" height="4"/>
    <rect x="64" y="69" width="4" height="4"/>
    <rect x="72" y="69" width="4" height="4"/>
    <rect x="80" y="69" width="4" height="4"/>
    <rect x="88" y="69" width="4" height="4"/>
    <rect x="96" y="69" width="4" height="4"/>

    <rect x="45" y="77" width="4" height="4"/>
    <rect x="53" y="77" width="4" height="4"/>
    <rect x="61" y="77" width="4" height="4"/>
    <rect x="69" y="77" width="4" height="4"/>
    <rect x="77" y="77" width="4" height="4"/>
    <rect x="85" y="77" width="4" height="4"/>
    <rect x="93" y="77" width="4" height="4"/>

    <rect x="44" y="85" width="4" height="4"/>
    <rect x="52" y="85" width="4" height="4"/>
    <rect x="60" y="85" width="4" height="4"/>
    <rect x="68" y="85" width="4" height="4"/>
    <rect x="76" y="85" width="4" height="4"/>
    <rect x="84" y="85" width="4" height="4"/>
    <rect x="92" y="85" width="4" height="4"/>
    <rect x="100" y="85" width="4" height="4"/>

    <rect x="44" y="93" width="4" height="4"/>
    <rect x="52" y="93" width="4" height="4"/>
    <rect x="56" y="97" width="4" height="4"/>
    <rect x="64" y="93" width="4" height="4"/>
    <rect x="72" y="93" width="4" height="4"/>
    <rect x="80" y="93" width="4" height="4"/>
    <rect x="88" y="93" width="4" height="4"/>
    <rect x="96" y="93" width="4" height="4"/>

    <rect x="44" y="101" width="4" height="4"/>
    <rect x="52" y="101" width="4" height="4"/>
    <rect x="60" y="101" width="4" height="4"/>
    <rect x="68" y="101" width="4" height="4"/>
    <rect x="76" y="101" width="4" height="4"/>
    <rect x="84" y="101" width="4" height="4"/>
    <rect x="92" y="101" width="4" height="4"/>
    <rect x="100" y="101" width="4" height="4"/>
  </g>
</svg>
